# xmcd
#
# Track frame offsets: 
#        150
#        25622
#        47608
#        61206
#        80363
#        101236
#        132035
#        155500
#        174847
#        199100
#        217465
#        249080
#
# Disc length: 3550 seconds
#
# Revision: 1
# Processed by: cddbd v1.5.2PL0 Copyright (c) Steve Scherf et al.
# Submitted via: ExactAudioCopy v0.99pb5
#
DISCID=990ddc0c
DTITLE=Boz Scaggs - Fade Into Light
DYEAR=2005
DGENRE=Blues
TTITLE0=Lowdown (Unplugged)
TTITLE1=Some Things Happen
TTITLE2=Just Go
TTITLE3=Love T.K.O.
TTITLE4=Fade Into Light
TTITLE5=Harbor Lights
TTITLE6=Lost It
TTITLE7=Time
TTITLE8=Sierra
TTITLE9=We're All Alone
TTITLE10=Simone
TTITLE11=I'll Be The One
EXTD=
EXTT0=
EXTT1=
EXTT2=
EXTT3=
EXTT4=
EXTT5=
EXTT6=
EXTT7=
EXTT8=
EXTT9=
EXTT10=
EXTT11=
PLAYORDER=
